<svg xmlns="http://www.w3.org/2000/svg" viewBox="0 0 754.54 873.7"><defs><style>.cls-1{fill:#333232;}</style></defs><title>Asset 1</title><g id="Layer_2" data-name="Layer 2"><g id="Layer_1-2" data-name="Layer 1"><g id="Capa_1" data-name="Capa 1"><path class="cls-1" d="M526.36,873.7H228.18a31.79,31.79,0,0,1-31.33-26.37l-16.63-96.14h-37.5a91.46,91.46,0,0,1-91.36-91.36v-1.21A91,91,0,0,1,71.77,601,373.6,373.6,0,0,1,0,380.73v-6.91C-.16,167.53,167,.16,373.24,0h7.49C587-.15,754.39,167,754.54,373.25v7.48A373.6,373.6,0,0,1,682.77,601a91,91,0,0,1,20.41,57.65v1.21a91.46,91.46,0,0,1-91.36,91.36H574.33l-16.64,96.14A31.78,31.78,0,0,1,526.36,873.7ZM254.94,810.11H499.6L516.23,714a31.79,31.79,0,0,1,31.33-26.38h64.26a27.81,27.81,0,0,0,27.78-27.77v-1.21a27.7,27.7,0,0,0-15.33-24.82,31.78,31.78,0,0,1-9.65-49.29A310,310,0,0,0,691,380.73v-6.91C691,202.49,552.12,63.6,380.79,63.59h-7C202.49,63.58,63.6,202.47,63.59,373.8v6.93a310,310,0,0,0,76.33,203.79,31.78,31.78,0,0,1-9.65,49.29A27.65,27.65,0,0,0,115,658.62v1.21a27.8,27.8,0,0,0,27.77,27.77H207A31.78,31.78,0,0,1,238.31,714Z"/><circle class="cls-1" cx="499.94" cy="444.45" r="87.89"/><path class="cls-1" d="M329.08,635.63a24.69,24.69,0,0,1-24.2-29.33l13.68-70.38a24.63,24.63,0,0,1,48.35,9.4l-13.68,70.37A24.64,24.64,0,0,1,329.08,635.63Z"/><path class="cls-1" d="M425.46,635.63a24.64,24.64,0,0,1-24.15-19.94l-13.68-70.37a24.63,24.63,0,0,1,48.35-9.4l13.68,70.38a24.65,24.65,0,0,1-24.2,29.33Z"/><path class="cls-1" d="M170.59,418.56a87.94,87.94,0,0,0-3.86,27.58c.86,45.81,37.37,83.66,83.13,86.07a87.89,87.89,0,0,0,92.49-83c.09-1.58.13-3.16.13-4.74v-.21a21.73,21.73,0,0,0-20.4-21.46A760.65,760.65,0,0,1,196.5,404.05,21.77,21.77,0,0,0,170.59,418.56Z"/><path class="cls-1" d="M126.62,625.53a21.21,21.21,0,0,1-21.19-21.2v-144a21.2,21.2,0,0,1,42.39,0v144a21.2,21.2,0,0,1-21.2,21.2Z"/><path class="cls-1" d="M627.05,625.53a21.2,21.2,0,0,1-21.2-21.2h0v-144a21.2,21.2,0,0,1,42.39,0v144A21.21,21.21,0,0,1,627.05,625.53Z"/></g></g></g></svg>