<svg xmlns="http://www.w3.org/2000/svg" xmlns:xlink="http://www.w3.org/1999/xlink" viewBox="0 0 754.54 873.7"><defs><style>.cls-1{fill:url(#radial-gradient);}.cls-2{fill:url(#radial-gradient-2);}.cls-3{fill:url(#radial-gradient-3);}.cls-4{fill:url(#radial-gradient-4);}.cls-5{fill:url(#radial-gradient-5);}.cls-6{fill:url(#radial-gradient-6);}.cls-7{fill:url(#radial-gradient-7);}</style><radialGradient id="radial-gradient" cx="377.27" cy="436.85" r="408.15" gradientUnits="userSpaceOnUse"><stop offset="0" stop-color="#fff"/><stop offset="1" stop-color="#ebebeb"/></radialGradient><radialGradient id="radial-gradient-2" cx="499.94" cy="444.44" r="87.89" gradientTransform="translate(460.7 -223.34) rotate(45)" xlink:href="#radial-gradient"/><radialGradient id="radial-gradient-3" cx="335.9" cy="575.81" r="47.79" xlink:href="#radial-gradient"/><radialGradient id="radial-gradient-4" cx="418.65" cy="575.81" r="47.79" xlink:href="#radial-gradient"/><radialGradient id="radial-gradient-5" cx="254.6" cy="467.89" r="77.06" xlink:href="#radial-gradient"/><radialGradient id="radial-gradient-6" cx="126.62" cy="532.34" r="67.58" xlink:href="#radial-gradient"/><radialGradient id="radial-gradient-7" cx="627.05" cy="532.34" r="67.58" xlink:href="#radial-gradient"/></defs><title>Asset 3</title><g id="Layer_2" data-name="Layer 2"><g id="Capa_1" data-name="Capa 1"><path class="cls-1" d="M526.36,873.7H228.18a31.79,31.79,0,0,1-31.33-26.37l-16.63-96.14h-37.5a91.46,91.46,0,0,1-91.36-91.36v-1.21A91,91,0,0,1,71.77,601,373.63,373.63,0,0,1,0,380.73v-6.91A373.53,373.53,0,0,1,373.82,0h6.91A373.53,373.53,0,0,1,754.54,373.82v6.91A373.63,373.63,0,0,1,682.77,601a91,91,0,0,1,20.41,57.65v1.21a91.46,91.46,0,0,1-91.36,91.36H574.33l-16.64,96.14A31.79,31.79,0,0,1,526.36,873.7ZM254.94,810.11H499.6L516.23,714a31.79,31.79,0,0,1,31.33-26.38h64.26a27.81,27.81,0,0,0,27.78-27.77v-1.21a27.7,27.7,0,0,0-15.33-24.82,31.79,31.79,0,0,1-9.65-49.29A309.93,309.93,0,0,0,691,380.73v-6.91A310.22,310.22,0,0,0,380.73,63.59h-6.91A310.22,310.22,0,0,0,63.59,373.82v6.91a310,310,0,0,0,76.33,203.79,31.8,31.8,0,0,1-9.65,49.29A27.66,27.66,0,0,0,115,658.62v1.21a27.8,27.8,0,0,0,27.77,27.77H207A31.79,31.79,0,0,1,238.31,714Z"/><circle class="cls-2" cx="499.94" cy="444.44" r="87.89" transform="translate(-167.84 483.69) rotate(-45)"/><path class="cls-3" d="M329.08,635.63a24.67,24.67,0,0,1-24.2-29.33l13.68-70.38a24.63,24.63,0,0,1,48.35,9.4l-13.68,70.37A24.64,24.64,0,0,1,329.08,635.63Z"/><path class="cls-4" d="M425.46,635.63a24.64,24.64,0,0,1-24.15-19.94l-13.68-70.37a24.63,24.63,0,0,1,48.35-9.4l13.68,70.38a24.67,24.67,0,0,1-24.2,29.33Z"/><path class="cls-5" d="M170.59,418.56a87.92,87.92,0,0,0-3.86,27.58c.86,45.81,37.37,83.66,83.13,86.07a87.89,87.89,0,0,0,92.62-87.77v-.21a21.73,21.73,0,0,0-20.4-21.46A760.69,760.69,0,0,1,196.5,404.05,21.76,21.76,0,0,0,170.59,418.56Z"/><path class="cls-6" d="M126.62,625.53a21.2,21.2,0,0,1-21.19-21.2v-144a21.2,21.2,0,0,1,42.39,0v144A21.2,21.2,0,0,1,126.62,625.53Z"/><path class="cls-7" d="M627.05,625.53a21.2,21.2,0,0,1-21.2-21.2v-144a21.2,21.2,0,0,1,42.39,0v144A21.2,21.2,0,0,1,627.05,625.53Z"/></g></g></svg>